Coordinates
version=1
nRows=14
nColumns=38
inDegrees=no

Units are S.I. units (second, meters, Newtons, ...)
If the header above contains a line with 'inDegrees', this indicates whether rotational values are in degrees (yes) or radians (no).

endheader
time	pelvis_tilt	pelvis_list	pelvis_rotation	pelvis_tx	pelvis_ty	pelvis_tz	hip_flexion_r	hip_adduction_r	hip_rotation_r	knee_angle_r	ankle_angle_r	subtalar_angle_r	mtp_angle_r	hip_flexion_l	hip_adduction_l	hip_rotation_l	knee_angle_l	ankle_angle_l	subtalar_angle_l	mtp_angle_l	lumbar_extension	lumbar_bending	lumbar_rotation	arm_flex_r	arm_add_r	arm_rot_r	elbow_flex_r	pro_sup_r	wrist_flex_r	wrist_dev_r	arm_flex_l	arm_add_l	arm_rot_l	elbow_flex_l	pro_sup_l	wrist_flex_l	wrist_dev_l
1.19	0.149304	1.07598	1.4773	0.895533	0.781253	1.00913	0.298093	0.0655809	-0.0862304	0.239039	-0.104442	0	0	0.764412	-0.123817	-0.220065	0	-0.269947	0	0	0.495823	0.0349678	0.112668	-0.234575	-0.324987	0.226361	0.804956	1.3157	0	0	-0.270137	-0.123812	-0.530275	0.402211	1.13646	0	0
1.2	0.147196	1.07125	1.47341	0.893972	0.792563	1.00662	0.294371	0.0642194	-0.084358	0.246694	-0.0991177	0	0	0.768261	-0.122207	-0.225972	0	-0.26677	0	0	0.500013	0.0370147	0.115107	-0.236727	-0.326368	0.223322	0.813291	1.3098	0	0	-0.269035	-0.121048	-0.535188	0.403207	1.13837	0	0
1.21	0.145016	1.0679	1.47098	0.892192	0.804116	1.00424	0.289405	0.0620722	-0.0840365	0.254944	-0.094057	0	0	0.772352	-0.119377	-0.230985	0	-0.257142	0	0	0.503172	0.0381294	0.116916	-0.23889	-0.327328	0.220282	0.819845	1.30525	0	0	-0.266853	-0.118197	-0.542893	0.402486	1.1393	0	0
1.22	0.142657	1.06637	1.47	0.89023	0.815901	1.00209	0.282751	0.0591528	-0.0843121	0.263545	-0.091849	0	0	0.776501	-0.115789	-0.23472	0	-0.2469	0	0	0.504506	0.0379861	0.117684	-0.239879	-0.327602	0.218177	0.823453	1.30404	0	0	-0.264202	-0.115667	-0.550694	0.400778	1.13705	0	0
1.23	0.140829	1.06627	1.46996	0.888082	0.827851	1.00016	0.274768	0.0559702	-0.0841758	0.2724	-0.090911	0	0	0.781334	-0.111657	-0.237183	0	-0.239847	0	0	0.504369	0.037004	0.11755	-0.240056	-0.327634	0.217063	0.824464	1.30498	0	0	-0.261322	-0.114071	-0.555786	0.398033	1.13521	0	0
1.24	0.139939	1.06704	1.4707	0.885841	0.839996	0.998398	0.266045	0.0527838	-0.0841084	0.282075	-0.0903703	0	0	0.787315	-0.107324	-0.238877	0	-0.235731	0	0	0.503243	0.0353041	0.116279	-0.240357	-0.327062	0.215742	0.824059	1.30702	0	0	-0.258108	-0.113257	-0.559752	0.394331	1.13472	0	0
1.25	0.14027	1.06819	1.4715	0.883616	0.852368	0.996794	0.256776	0.0500073	-0.0828054	0.291173	-0.0907875	0	0	0.793949	-0.10351	-0.238602	0	-0.235708	0	0	0.501931	0.0330813	0.114619	-0.241012	-0.325689	0.214417	0.821827	1.30885	0	0	-0.255497	-0.1134	-0.56136	0.39113	1.13531	0	0
1.26	0.140817	1.07081	1.47302	0.881393	0.86503	0.995423	0.246689	0.0470014	-0.0824555	0.30254	-0.0931972	0	0	0.798912	-0.0997747	-0.236513	0	-0.238766	0	0	0.499161	0.0301165	0.112876	-0.241715	-0.323229	0.212283	0.817283	1.31292	0	0	-0.252268	-0.114279	-0.563116	0.386509	1.1371	0	0
1.27	0.140646	1.07337	1.47551	0.879069	0.878006	0.994143	0.237159	0.0434211	-0.082211	0.314865	-0.098893	0	0	0.802946	-0.0957685	-0.232329	0.00367711	-0.244327	0	0	0.496849	0.0266875	0.11194	-0.244053	-0.319719	0.207815	0.811822	1.31957	0	0	-0.249197	-0.114877	-0.567163	0.38202	1.13929	0	0
1.28	0.139619	1.07386	1.47836	0.876719	0.891215	0.992733	0.230864	0.0394894	-0.0803231	0.329479	-0.105577	0	0	0.809072	-0.0919214	-0.226484	0.0376822	-0.245719	0	0	0.49762	0.0232246	0.11206	-0.248341	-0.315997	0.203042	0.806037	1.32575	0	0	-0.248327	-0.115215	-0.571696	0.3798	1.14098	0	0
1.29	0.136308	1.07355	1.48203	0.874386	0.904769	0.991342	0.226786	0.0343563	-0.0770619	0.346844	-0.113698	0	0	0.813837	-0.0871121	-0.218403	0.0697754	-0.247284	0	0	0.50059	0.0192228	0.113754	-0.253131	-0.312027	0.199724	0.79792	1.33249	0	0	-0.249762	-0.115829	-0.575385	0.378923	1.14283	0	0
1.3	0.129709	1.07169	1.48726	0.872156	0.918552	0.989998	0.226445	0.0278646	-0.0718411	0.367716	-0.123732	0	0	0.818353	-0.0808546	-0.209627	0.0960091	-0.25696	0	0	0.506523	0.0140975	0.116852	-0.257438	-0.307181	0.198527	0.786275	1.33949	0	0	-0.253259	-0.117211	-0.578058	0.37852	1.14498	0	0
1.31	0.119654	1.06738	1.49465	0.870078	0.932365	0.988777	0.231674	0.0200689	-0.0641329	0.393467	-0.136325	0	0	0.824591	-0.0735538	-0.198594	0.116067	-0.275691	0	0	0.516323	0.00755792	0.120803	-0.260424	-0.301028	0.199987	0.76993	1.34647	0	0	-0.25795	-0.119521	-0.581454	0.377257	1.14676	0	0
1.32	0.107462	1.05996	1.50416	0.868119	0.946087	0.987745	0.243677	0.0114285	-0.0546909	0.425228	-0.153342	0	0	0.834303	-0.0667657	-0.185939	0.135149	-0.29455	0	0	0.530673	-0.000487794	0.123441	-0.260957	-0.293208	0.204809	0.747593	1.35393	0	0	-0.264111	-0.12274	-0.585695	0.374938	1.14956	0	0
